<svg width="512" height="512" viewBox="0 0 512 512" fill="none" xmlns="http://www.w3.org/2000/svg">
<path d="M320.822 335.362C321.771 335.017 322.617 334.439 323.282 333.68C323.948 332.922 324.411 332.008 324.63 331.022C324.848 330.037 324.815 329.013 324.532 328.044C324.25 327.075 323.728 326.193 323.014 325.48L279.5 281.965C285.689 273.435 288.632 262.978 287.802 252.472C286.972 241.966 282.422 232.101 274.97 224.649C267.518 217.197 257.653 212.647 247.147 211.817C236.642 210.986 226.184 213.93 217.654 220.118L174.134 176.6C173.421 175.886 172.539 175.364 171.57 175.082C170.601 174.799 169.577 174.766 168.592 174.985C167.607 175.203 166.692 175.667 165.934 176.332C165.175 176.998 164.597 177.844 164.252 178.792L128.43 277.306C116.621 309.634 97.9156 339.004 73.6142 363.377C71.2795 365.712 69.4274 368.483 68.1639 371.533C66.9003 374.584 66.25 377.853 66.25 381.155C66.25 384.456 66.9003 387.725 68.1639 390.776C69.4274 393.826 71.2795 396.598 73.6142 398.932L100.683 426C103.018 428.335 105.789 430.187 108.839 431.45C111.889 432.714 115.159 433.364 118.46 433.364C121.762 433.364 125.031 432.714 128.081 431.45C131.131 430.187 133.903 428.335 136.237 426C136.402 425.835 136.573 425.677 136.737 425.512L192.716 481.492C193.841 482.617 195.367 483.249 196.959 483.249C198.55 483.249 200.076 482.617 201.201 481.492C209.494 473.181 214.151 461.92 214.151 450.18C214.151 438.44 209.494 427.179 201.201 418.868L176.259 393.926C190.735 384.693 206.176 377.067 222.307 371.184L320.822 335.362ZM266.481 233.133C271.681 238.333 274.949 245.152 275.746 252.462C276.544 259.772 274.822 267.135 270.865 273.333L226.287 228.755C232.487 224.808 239.846 223.09 247.153 223.886C254.459 224.682 261.277 227.943 266.481 233.133V233.133ZM118.46 421.365C116.734 421.37 115.024 421.032 113.429 420.371C111.834 419.711 110.386 418.74 109.168 417.516L82.1002 390.446C80.8799 389.226 79.9118 387.777 79.2514 386.183C78.5909 384.589 78.251 382.88 78.251 381.155C78.251 379.429 78.5909 377.72 79.2514 376.126C79.9118 374.532 80.8799 373.083 82.1002 371.863C86.7755 367.187 91.2595 362.318 95.5522 357.257L142.358 404.063C137.306 408.354 132.438 412.839 127.753 417.516C126.536 418.74 125.087 419.711 123.492 420.371C121.897 421.032 120.187 421.37 118.46 421.365V421.365ZM192.718 427.354C198.036 432.673 201.33 439.682 202.033 447.17C202.736 454.659 200.804 462.158 196.569 468.374L145.469 417.274C152.043 411.39 158.941 405.88 166.13 400.767L192.718 427.354ZM151.752 396.488L103.127 347.862C118.641 327.707 130.977 305.295 139.707 281.406L172.307 191.748L307.867 327.3L218.208 359.9C194.318 368.632 171.907 380.971 151.752 396.488V396.488Z" fill="white"/>
<path d="M308.979 203.5C299.944 194.447 288.443 188.255 275.911 185.698C263.379 183.142 250.371 184.333 238.513 189.124C237.782 189.419 237.116 189.854 236.553 190.406C235.991 190.958 235.542 191.616 235.234 192.341C234.925 193.066 234.763 193.845 234.755 194.633C234.748 195.421 234.895 196.203 235.19 196.934C235.485 197.664 235.92 198.33 236.472 198.893C237.024 199.455 237.681 199.904 238.407 200.212C239.132 200.521 239.911 200.683 240.699 200.691C241.487 200.698 242.269 200.551 243 200.256C252.677 196.358 263.286 195.391 273.508 197.477C283.73 199.562 293.114 204.607 300.49 211.984C307.867 219.361 312.912 228.744 314.997 238.966C317.082 249.189 316.116 259.798 312.218 269.475C311.923 270.206 311.776 270.988 311.783 271.776C311.791 272.563 311.954 273.342 312.262 274.067C312.571 274.792 313.019 275.449 313.582 276.001C314.144 276.553 314.81 276.988 315.541 277.283C316.272 277.577 317.054 277.725 317.842 277.717C318.629 277.709 319.408 277.546 320.133 277.238C320.858 276.929 321.515 276.481 322.067 275.918C322.619 275.356 323.054 274.69 323.349 273.959C328.14 262.102 329.332 249.096 326.777 236.565C324.221 224.034 318.031 212.534 308.979 203.5V203.5Z" fill="white"/>
<path d="M344.734 288.438C345.465 288.732 346.247 288.88 347.035 288.872C347.823 288.865 348.602 288.702 349.327 288.393C350.052 288.085 350.709 287.636 351.261 287.073C351.812 286.511 352.248 285.845 352.542 285.114C359.594 267.613 361.344 248.424 357.574 229.936C353.804 211.448 344.68 194.477 331.337 181.135C317.995 167.793 301.024 158.669 282.536 154.899C264.048 151.129 244.859 152.879 227.358 159.931C226.622 160.221 225.95 160.655 225.382 161.206C224.814 161.757 224.36 162.415 224.047 163.143C223.735 163.87 223.569 164.652 223.56 165.444C223.551 166.235 223.699 167.021 223.994 167.755C224.29 168.489 224.729 169.158 225.284 169.722C225.839 170.286 226.501 170.735 227.231 171.042C227.96 171.349 228.743 171.509 229.535 171.513C230.327 171.516 231.111 171.362 231.843 171.061C247.161 164.888 263.957 163.357 280.139 166.657C296.32 169.957 311.175 177.943 322.853 189.62C334.53 201.298 342.516 216.153 345.816 232.335C349.116 248.517 347.584 265.312 341.411 280.63C341.117 281.361 340.969 282.143 340.977 282.931C340.984 283.718 341.147 284.497 341.456 285.222C341.764 285.947 342.212 286.604 342.775 287.156C343.338 287.708 344.003 288.144 344.734 288.438V288.438Z" fill="white"/>
<path d="M411.625 10C393.751 10 376.277 15.3004 361.415 25.2309C346.553 35.1615 334.97 49.2761 328.129 65.79C321.289 82.3039 319.499 100.475 322.987 118.006C326.474 135.537 335.081 151.641 347.72 164.28C360.359 176.919 376.463 185.526 393.994 189.013C411.525 192.501 429.696 190.711 446.21 183.871C462.724 177.03 476.839 165.447 486.769 150.585C496.7 135.723 502 118.249 502 100.375C501.973 76.4143 492.443 53.4428 475.5 36.5C458.557 19.5573 435.586 10.027 411.625 10V10ZM411.625 178.75C396.124 178.75 380.971 174.153 368.082 165.541C355.194 156.929 345.148 144.689 339.216 130.368C333.284 116.047 331.732 100.288 334.756 85.0848C337.78 69.8815 345.245 55.9164 356.206 44.9555C367.166 33.9946 381.132 26.5301 396.335 23.506C411.538 20.4818 427.297 22.0339 441.618 27.9659C455.939 33.898 468.18 43.9435 476.791 56.8322C485.403 69.7209 490 84.8739 490 100.375C489.976 121.154 481.712 141.075 467.018 155.768C452.325 170.462 432.404 178.726 411.625 178.75Z" fill="white"/>
<path d="M444.087 89.879C448.52 89.8796 452.855 88.5665 456.543 86.1057C460.231 83.6448 463.107 80.1464 464.809 76.0522C466.51 71.9579 466.96 67.4514 466.103 63.1014C465.245 58.7515 463.118 54.7532 459.989 51.6113C456.861 48.4694 452.872 46.3247 448.526 45.448C444.18 44.5713 439.671 45.0019 435.57 46.6855C431.468 48.3691 427.957 51.2301 425.48 54.9074C423.003 58.5847 421.672 62.9134 421.653 67.347L393.828 83.416C390.601 80.6211 386.644 78.8047 382.421 78.18C378.199 77.5553 373.885 78.1483 369.988 79.8893C366.09 81.6303 362.77 84.4471 360.417 88.009C358.065 91.5709 356.777 95.73 356.705 99.9982C356.634 104.266 357.781 108.466 360.013 112.105C362.245 115.744 365.469 118.67 369.306 120.541C373.143 122.412 377.434 123.149 381.675 122.667C385.917 122.184 389.932 120.501 393.251 117.816L421.779 135.691C422.348 141.052 424.826 146.029 428.761 149.713C432.696 153.397 437.825 155.543 443.212 155.758C448.598 155.973 453.882 154.243 458.098 150.884C462.315 147.525 465.182 142.762 466.176 137.463C467.17 132.165 466.225 126.686 463.514 122.027C460.802 117.368 456.505 113.84 451.407 112.088C446.309 110.335 440.751 110.475 435.748 112.482C430.744 114.489 426.63 118.229 424.157 123.019L400.249 108.039C401.961 103.331 402.047 98.1845 400.492 93.422L425.025 79.254C427.035 82.5008 429.841 85.1806 433.177 87.0399C436.513 88.8992 440.268 89.8764 444.087 89.879V89.879ZM444.087 57.006C446.151 57.0058 448.169 57.6178 449.886 58.7645C451.602 59.9112 452.94 61.5412 453.73 63.4483C454.52 65.3553 454.727 67.4539 454.324 69.4786C453.922 71.5032 452.928 73.363 451.468 74.8227C450.009 76.2825 448.149 77.2766 446.124 77.6794C444.1 78.0822 442.001 77.8756 440.094 77.0856C438.187 76.2957 436.557 74.958 435.41 73.2416C434.263 71.5252 433.651 69.5073 433.651 67.443C433.654 64.6761 434.754 62.0234 436.711 60.0668C438.667 58.1102 441.32 57.0095 444.087 57.006V57.006ZM379.163 110.812C377.099 110.812 375.081 110.2 373.364 109.053C371.648 107.906 370.31 106.276 369.52 104.369C368.73 102.462 368.524 100.363 368.926 98.3389C369.329 96.3143 370.323 94.4546 371.783 92.9949C373.242 91.5353 375.102 90.5413 377.127 90.1386C379.151 89.7358 381.25 89.9425 383.157 90.7325C385.064 91.5224 386.694 92.8602 387.841 94.5765C388.988 96.2929 389.6 98.3108 389.6 100.375C389.597 103.142 388.496 105.795 386.539 107.752C384.583 109.708 381.93 110.809 379.163 110.812V110.812ZM444.087 122.871C446.151 122.871 448.169 123.483 449.886 124.63C451.602 125.776 452.94 127.406 453.73 129.313C454.52 131.221 454.727 133.319 454.324 135.344C453.922 137.369 452.928 139.228 451.468 140.688C450.008 142.148 448.148 143.142 446.124 143.545C444.099 143.947 442 143.74 440.093 142.95C438.186 142.16 436.556 140.822 435.409 139.106C434.263 137.389 433.651 135.371 433.651 133.307C433.654 130.54 434.754 127.888 436.711 125.931C438.667 123.975 441.32 122.874 444.087 122.871Z" fill="white"/>
<path d="M411.625 321.25C393.751 321.25 376.277 326.55 361.415 336.481C346.553 346.411 334.97 360.526 328.129 377.04C321.289 393.554 319.499 411.725 322.987 429.256C326.474 446.787 335.081 462.891 347.72 475.53C360.359 488.169 376.463 496.776 393.994 500.263C411.525 503.751 429.696 501.961 446.21 495.121C462.724 488.28 476.839 476.697 486.769 461.835C496.7 446.973 502 429.499 502 411.625C501.973 387.664 492.443 364.693 475.5 347.75C458.557 330.807 435.586 321.277 411.625 321.25V321.25ZM411.625 490C396.124 490 380.971 485.403 368.082 476.791C355.194 468.179 345.148 455.939 339.216 441.618C333.284 427.297 331.732 411.538 334.756 396.335C337.78 381.132 345.245 367.166 356.206 356.206C367.166 345.245 381.132 337.78 396.335 334.756C411.538 331.732 427.297 333.284 441.618 339.216C455.939 345.148 468.18 355.193 476.791 368.082C485.403 380.971 490 396.124 490 411.625C489.976 432.404 481.712 452.325 467.018 467.018C452.325 481.712 432.404 489.976 411.625 490V490Z" fill="white"/>
<path d="M448.731 406.522L399.581 376.122C398.672 375.56 397.63 375.251 396.562 375.226C395.494 375.202 394.438 375.463 393.505 375.983C392.572 376.503 391.794 377.263 391.253 378.184C390.711 379.105 390.425 380.154 390.425 381.222V442.022C390.425 443.09 390.711 444.139 391.253 445.06C391.794 445.981 392.572 446.741 393.505 447.261C394.438 447.781 395.494 448.042 396.562 448.017C397.63 447.993 398.672 447.684 399.581 447.122L448.731 416.722C449.6 416.184 450.318 415.433 450.816 414.54C451.314 413.647 451.575 412.641 451.575 411.619C451.575 410.596 451.314 409.591 450.816 408.698C450.318 407.805 449.6 407.054 448.731 406.516V406.522ZM402.425 431.259V391.991L434.169 411.625L402.425 431.259Z" fill="white"/>
<path d="M100.375 190.75C118.249 190.75 135.723 185.45 150.585 175.519C165.447 165.589 177.03 151.474 183.871 134.96C190.711 118.446 192.501 100.275 189.013 82.7438C185.526 65.2127 176.919 49.1094 164.28 36.4703C151.641 23.8311 135.537 15.2237 118.006 11.7366C100.475 8.24943 82.3039 10.0392 65.79 16.8794C49.2761 23.7197 35.1615 35.3033 25.2309 50.1654C15.3004 65.0275 10 82.5006 10 100.375C10.027 124.336 19.5573 147.307 36.5 164.25C53.4428 181.193 76.4143 190.723 100.375 190.75V190.75ZM100.375 22C115.876 22 131.029 26.5967 143.918 35.2086C156.807 43.8206 166.852 56.0611 172.784 70.3822C178.716 84.7034 180.268 100.462 177.244 115.665C174.22 130.869 166.755 144.834 155.794 155.795C144.834 166.755 130.868 174.22 115.665 177.244C100.462 180.268 84.7033 178.716 70.3822 172.784C56.061 166.852 43.8205 156.807 35.2086 143.918C26.5966 131.029 22 115.876 22 100.375C22.0236 79.5959 30.2885 59.6746 44.9815 44.9816C59.6746 30.2885 79.5959 22.0236 100.375 22V22Z" fill="white"/>
<path d="M63.5 136.257H106.439C110.681 136.252 114.748 134.565 117.747 131.565C120.747 128.566 122.434 124.499 122.439 120.257V119.305L144.364 131.335C145.278 131.836 146.306 132.091 147.348 132.074C148.39 132.057 149.41 131.769 150.306 131.238C151.203 130.707 151.946 129.952 152.462 129.047C152.978 128.141 153.25 127.117 153.25 126.075V74.675C153.25 73.6329 152.978 72.6087 152.462 71.7034C151.946 70.7981 151.203 70.0429 150.306 69.5122C149.409 68.9814 148.389 68.6935 147.347 68.6766C146.305 68.6597 145.277 68.9146 144.363 69.416L122.439 81.449V80.493C122.434 76.251 120.747 72.1842 117.747 69.1846C114.748 66.1851 110.681 64.4978 106.439 64.493H63.5C59.2579 64.4975 55.1909 66.1847 52.1913 69.1843C49.1917 72.1839 47.5045 76.251 47.5 80.493V120.257C47.5045 124.499 49.1917 128.566 52.1913 131.566C55.1909 134.565 59.2579 136.253 63.5 136.257ZM141.25 84.813V115.938L122.439 105.617V95.138L141.25 84.813ZM59.5 80.493C59.5 79.4322 59.9214 78.4148 60.6716 77.6646C61.4217 76.9145 62.4391 76.493 63.5 76.493H106.439C107.5 76.493 108.517 76.9145 109.267 77.6646C110.018 78.4148 110.439 79.4322 110.439 80.493V120.257C110.439 121.318 110.018 122.335 109.267 123.085C108.517 123.836 107.5 124.257 106.439 124.257H63.5C62.4391 124.257 61.4217 123.836 60.6716 123.085C59.9214 122.335 59.5 121.318 59.5 120.257V80.493Z" fill="white"/>
</svg>
