<svg width="356" height="356" viewBox="0 0 356 356" fill="none" xmlns="http://www.w3.org/2000/svg">
<g clip-path="url(#clip0)">
<path d="M66.8831 211.547L161.931 191.485C164.568 190.928 166.704 188.999 167.526 186.432L183.845 135.424C188.441 130.828 218.217 101.053 223.092 96.177C226.021 93.248 226.021 88.499 223.092 85.571L182.937 45.416C180.008 42.487 175.259 42.487 172.33 45.416C167.48 50.266 138.046 79.701 133.462 84.285L81.8811 100.787C79.3141 101.609 77.3841 103.744 76.8281 106.382L56.7661 201.43C53.9301 207.71 60.5281 214.418 66.8831 211.547ZM177.633 61.325L207.182 90.874L197.711 100.345L168.162 70.796L177.633 61.325ZM157.556 81.403L187.105 110.952L177.634 120.423L148.086 90.875L157.556 81.403ZM90.6041 113.745L135.409 99.411L168.902 132.904L154.567 177.709L86.6881 192.037L126.505 152.22C129.434 149.291 129.434 144.542 126.505 141.613C123.576 138.684 118.827 138.684 115.899 141.613L76.3811 181.131L90.6041 113.745Z" fill="white"/>
<path d="M347.503 296.784H147.279C136.619 296.784 130.55 284.634 136.989 276.113C150.869 257.743 137.749 231.399 114.731 231.399H7.5C3.358 231.399 0 234.757 0 238.899C0 243.041 3.358 246.399 7.5 246.399H114.732C125.391 246.399 131.461 258.548 125.022 267.07C111.143 285.439 124.261 311.784 147.28 311.784H347.504C351.646 311.784 355.004 308.426 355.004 304.284C355.004 300.142 351.645 296.784 347.503 296.784Z" fill="white"/>
</g>
<defs>
<clipPath id="clip0">
<rect width="355.004" height="355.004" fill="white"/>
</clipPath>
</defs>
</svg>
