<svg width="512" height="512" viewBox="0 0 512 512" fill="none" xmlns="http://www.w3.org/2000/svg">
<path d="M444.875 109.792L338.208 3.125C336.208 1.125 333.5 0 330.666 0H106.666C83.146 0 64 19.135 64 42.667V469.334C64 492.865 83.146 512 106.667 512H405.334C428.854 512 448 492.865 448 469.333V117.333C448 114.5 446.875 111.792 444.875 109.792ZM341.333 36.417L411.583 106.667H362.666C350.895 106.667 341.333 97.094 341.333 85.334V36.417V36.417ZM426.667 469.333C426.667 481.093 417.104 490.666 405.334 490.666H106.667C94.896 490.666 85.334 481.093 85.334 469.333V42.667C85.334 30.907 94.897 21.334 106.667 21.334H320V85.334C320 108.865 339.146 128 362.667 128H426.667V469.333Z" fill="white"/>
<path d="M234.667 309.333C234.667 315.229 239.438 320 245.334 320H373.334C379.23 320 384.001 315.229 384.001 309.333C384.001 303.437 379.23 298.666 373.334 298.666H245.334C239.438 298.667 234.667 303.438 234.667 309.333Z" fill="white"/>
<path d="M234.667 202.667C234.667 208.563 239.438 213.334 245.334 213.334H373.334C379.23 213.334 384.001 208.563 384.001 202.667C384.001 196.771 379.23 192 373.334 192H245.334C239.438 192.001 234.667 196.772 234.667 202.667Z" fill="white"/>
<path d="M115 96.667C115 102.563 119.771 107.334 125.667 107.334H253.667C259.563 107.334 264.334 102.563 264.334 96.667C264.334 90.771 259.563 86 253.667 86H125.667C119.771 86.001 115 90.772 115 96.667Z" fill="white"/>
<path d="M373.333 405.333H245.333C239.437 405.333 234.666 410.104 234.666 416C234.666 421.896 239.437 426.667 245.333 426.667H373.333C379.229 426.667 384 421.896 384 416C384 410.104 379.229 405.333 373.333 405.333Z" fill="white"/>
</svg>
