<svg width="605" height="605" viewBox="0 0 605 605" fill="none" xmlns="http://www.w3.org/2000/svg">
<path d="M297.92 320.074C333.592 320.074 362.506 291.152 362.506 255.484C362.506 219.812 333.592 190.895 297.92 190.895C262.245 190.895 233.331 219.812 233.331 255.484C233.374 291.136 262.264 320.027 297.92 320.074ZM297.92 216.006C319.791 216.006 337.52 233.734 337.52 255.609C337.52 277.48 319.791 295.212 297.92 295.212C276.046 295.212 258.317 277.48 258.317 255.609C258.321 233.738 276.05 216.014 297.92 216.006Z" fill="white"/>
<path d="M297.92 343.936C271.494 343.74 246.133 354.348 227.709 373.294C208.969 392.409 198.725 418.394 198.725 446.629C198.745 453.52 204.324 459.103 211.218 459.122H384.619C391.513 459.103 397.092 453.52 397.112 446.629C397.112 418.394 386.868 392.409 368.128 373.294C349.708 354.348 324.343 343.74 297.92 343.936ZM224.586 434.136C226.721 417.801 234.088 402.598 245.574 390.785C259.399 376.796 278.252 368.922 297.92 368.922C317.585 368.922 336.438 376.796 350.263 390.785C361.725 402.61 369.084 417.809 371.251 434.136H224.586Z" fill="white"/>
<path d="M447.838 18.9895H148.003C113.51 19.0051 85.5493 46.9624 85.5376 81.4551V523.711C85.5493 558.204 113.51 586.161 148.003 586.177H447.838C482.331 586.161 510.288 558.204 510.304 523.711V81.4551C510.288 46.9624 482.331 19.0051 447.838 18.9895ZM485.317 523.711C485.259 544.384 468.51 561.132 447.838 561.191H148.003C127.331 561.132 110.582 544.384 110.524 523.711V81.4551C110.582 60.7829 127.331 44.0343 148.003 43.9757H447.838C468.51 44.0343 485.259 60.7829 485.317 81.4551V523.711Z" fill="white"/>
<path d="M245.824 102.818H345.769C352.668 102.818 358.262 97.2237 358.262 90.3251C358.262 83.4266 352.668 77.832 345.769 77.832H245.824C238.922 77.832 233.331 83.4266 233.331 90.3251C233.331 97.2237 238.922 102.818 245.824 102.818V102.818Z" fill="white"/>
</svg>
