<svg width="297" height="297" viewBox="0 0 297 297" fill="none" xmlns="http://www.w3.org/2000/svg">
<g clip-path="url(#clip0)">
<path d="M55.0929 110.761L61.6369 128.504C61.8829 129.172 62.5189 129.615 63.2299 129.615C63.9409 129.615 64.5769 129.172 64.8229 128.504L71.3669 110.761C76.6639 96.3969 87.9869 85.0739 102.35 79.7779L120.093 73.2339C120.76 72.9879 121.203 72.3519 121.203 71.6409C121.203 70.9299 120.76 70.2939 120.093 70.0479L102.349 63.5039C87.9859 58.2069 76.6629 46.8849 71.3669 32.5219L64.8229 14.7789C64.5769 14.1119 63.9409 13.6689 63.2299 13.6689C62.5189 13.6689 61.8829 14.1119 61.6369 14.7789L55.0929 32.5219C49.7959 46.8849 38.4739 58.2069 24.1099 63.5039L6.36586 70.0479C5.69886 70.2939 5.25586 70.9299 5.25586 71.6409C5.25586 72.3519 5.69886 72.9879 6.36586 73.2339L24.1089 79.7779C38.4729 85.0739 49.7959 96.3959 55.0929 110.761Z" fill="white"/>
<path d="M198.948 185.703L181.206 179.16C166.842 173.863 155.519 162.541 150.223 148.178L143.679 130.435C143.433 129.768 142.797 129.325 142.086 129.325C141.375 129.325 140.739 129.768 140.493 130.435L133.949 148.177C128.652 162.541 117.329 173.863 102.966 179.16L85.2228 185.703C84.5558 185.949 84.1128 186.585 84.1128 187.296C84.1128 188.007 84.5558 188.643 85.2228 188.889L102.967 195.434C117.33 200.731 128.652 212.053 133.949 226.416L140.493 244.16C140.739 244.827 141.375 245.27 142.086 245.27C142.797 245.27 143.433 244.827 143.679 244.16L150.223 226.416C155.52 212.053 166.842 200.73 181.205 195.434L198.949 188.889C199.616 188.643 200.059 188.007 200.059 187.296C200.059 186.585 199.615 185.949 198.948 185.703Z" fill="white"/>
<path d="M290.778 109.811L278.719 105.364C268.958 101.764 261.263 94.069 257.663 84.308L253.216 72.25C253.048 71.797 252.616 71.495 252.133 71.495C251.65 71.495 251.218 71.797 251.05 72.25L246.604 84.307C243.004 94.069 235.309 101.764 225.547 105.364L213.489 109.811C213.036 109.978 212.734 110.41 212.734 110.893C212.734 111.376 213.036 111.809 213.489 111.976L225.548 116.422C235.309 120.023 243.004 127.718 246.604 137.479L251.05 149.539C251.218 149.992 251.65 150.294 252.133 150.294C252.616 150.294 253.048 149.992 253.216 149.539L257.663 137.479C261.263 127.717 268.957 120.023 278.719 116.423L290.778 111.976C291.231 111.809 291.533 111.376 291.533 110.893C291.533 110.41 291.231 109.978 290.778 109.811Z" fill="white"/>
<path d="M261.567 268.552L253.155 265.449C246.346 262.938 240.979 257.571 238.468 250.763L235.365 242.353C235.249 242.037 234.947 241.827 234.61 241.827C234.273 241.827 233.971 242.037 233.855 242.353L230.752 250.763C228.241 257.572 222.874 262.939 216.066 265.449L207.654 268.552C207.338 268.668 207.128 268.97 207.128 269.307C207.128 269.644 207.338 269.946 207.654 270.062L216.065 273.165C222.875 275.676 228.242 281.044 230.753 287.853L233.856 296.264C233.972 296.58 234.274 296.79 234.611 296.79C234.948 296.79 235.25 296.58 235.366 296.264L238.469 287.853C240.98 281.044 246.347 275.676 253.157 273.165L261.568 270.062C261.884 269.946 262.094 269.644 262.094 269.307C262.094 268.97 261.884 268.668 261.567 268.552Z" fill="white"/>
<path d="M199.533 26.726L191.121 23.624C184.312 21.113 178.945 15.746 176.435 8.937L173.332 0.527C173.216 0.21 172.914 0 172.577 0C172.24 0 171.938 0.21 171.822 0.526L168.72 8.935C166.209 15.744 160.841 21.112 154.032 23.623L145.62 26.725C145.304 26.841 145.094 27.143 145.094 27.48C145.094 27.817 145.304 28.119 145.62 28.235L154.031 31.338C160.841 33.849 166.209 39.217 168.72 46.027L171.822 54.437C171.938 54.753 172.24 54.963 172.577 54.963C172.914 54.963 173.216 54.753 173.332 54.437L176.435 46.026C178.946 39.216 184.313 33.849 191.123 31.339L199.534 28.236C199.85 28.12 200.06 27.818 200.06 27.481C200.06 27.144 199.85 26.842 199.533 26.726Z" fill="white"/>
<path d="M96.3588 251.26L85.7788 247.36C77.2148 244.202 70.4628 237.45 67.3028 228.885L63.4018 218.305C63.2548 217.908 62.8758 217.643 62.4518 217.643C62.0278 217.643 61.6488 217.908 61.5018 218.305L57.6008 228.884C54.4428 237.449 47.6908 244.201 39.1248 247.36L28.5468 251.26C28.1478 251.406 27.8848 251.786 27.8848 252.21C27.8848 252.634 28.1488 253.014 28.5468 253.16L39.1258 257.062C47.6898 260.22 54.4418 266.972 57.6008 275.537L61.5018 286.117C61.6488 286.515 62.0278 286.779 62.4518 286.779C62.8758 286.779 63.2558 286.515 63.4018 286.117L67.3038 275.536C70.4618 266.972 77.2128 260.221 85.7778 257.062L96.3588 253.16C96.7568 253.014 97.0208 252.634 97.0208 252.21C97.0208 251.786 96.7578 251.406 96.3588 251.26Z" fill="white"/>
</g>
<defs>
<clipPath id="clip0">
<rect width="296.789" height="296.789" fill="white"/>
</clipPath>
</defs>
</svg>
