<svg width="438" height="265" viewBox="0 0 438 265" fill="none" xmlns="http://www.w3.org/2000/svg">
<path d="M236.164 23.5237L220.179 93.3455H251.673L245.652 119.624H180.677L202.684 23.5237H236.164ZM249.147 23.5237H314.121L297.765 94.9284L258.634 119.624L274.62 49.8023H243.132L249.147 23.5237ZM178.528 13.5291L151.952 129.605C150.251 137.029 156.073 143.101 164.891 143.101H297.146C305.972 143.101 314.577 137.036 316.271 129.605L342.847 13.5291C344.555 6.11198 338.726 0.0325928 329.908 0.0325928H197.652C188.834 0.0325928 180.229 6.11198 178.528 13.5291Z" fill="white"/>
<path d="M17.0033 155.308L0.247671 217.517L11.1084 217.476L27.864 155.266L17.0033 155.308Z" fill="white"/>
<path d="M35.6992 195.598C37.4644 189.028 43.3362 182.613 51.2934 182.613C58.7098 182.613 61.6991 189.028 59.9339 195.598C58.1475 202.273 52.4109 208.499 44.3611 208.499C36.3185 208.499 33.9128 202.273 35.6992 195.598ZM41.6921 218.466C56.1546 218.466 67.6705 208.233 71.0655 195.598C74.4178 183.061 68.0549 172.737 53.8557 172.737C39.6565 172.737 28.0267 183.061 24.6673 195.598C21.2794 208.233 27.2224 218.466 41.6921 218.466Z" fill="white"/>
<path d="M110.862 194.434C108.834 201.991 102.35 206.607 96.0152 206.607C89.6025 206.607 85.5669 202.082 87.6167 194.434C89.6665 186.786 96.1789 182.065 102.599 182.065C108.933 182.065 112.883 186.877 110.862 194.434ZM120.705 169.178L114.798 174.683C112.271 172.645 108.77 172.197 105.246 172.197C92.7626 172.197 80.3499 180.735 76.6702 194.434C73.0047 208.127 79.4459 216.482 93.3747 216.482C98.8906 216.482 103.937 219.249 102.321 225.286C100.691 231.345 94.8124 234.721 88.4779 234.721C82.1506 234.721 77.8232 230.987 79.3463 225.286H68.3998C65.2325 237.123 72.8339 244.855 85.7662 244.855C98.6914 244.855 110.108 237.396 113.353 225.286C114.855 219.69 114.449 214.437 108.015 210.795C116.214 207.503 120.35 199.855 121.802 194.434C123.097 189.622 122.99 185.266 120.577 181.449L127.225 175.222L120.705 169.178Z" fill="white"/>
<path d="M161.756 195.598C159.969 202.273 154.226 208.499 146.183 208.499C138.126 208.499 135.727 202.273 137.521 195.598C139.279 189.028 145.158 182.613 153.115 182.613C160.524 182.613 163.521 189.028 161.756 195.598ZM172.873 195.598C176.24 183.061 169.877 172.737 155.677 172.737C141.471 172.737 129.848 183.061 126.489 195.598C123.094 208.233 129.037 218.466 143.507 218.466C157.976 218.466 169.492 208.233 172.873 195.598Z" fill="white"/>
<path d="M198.354 183.057H210.745L213.25 173.721H200.944L204.29 161.268L192.944 162.431L189.912 173.721H181.599L179.094 183.057H187.414L182.332 202.003C179.4 212.943 184.275 218.364 194.055 218.007C197.421 217.923 200.19 217.391 203.685 216.144L203.087 206.892C201.25 207.697 199.115 208.229 197.393 208.229C193.962 208.229 192.154 206.184 193.272 202.003L198.354 183.057Z" fill="white"/>
<path d="M241.363 181.899C247.698 181.899 251.449 184.742 250.651 190.443H226.595C229.741 184.742 235.392 181.899 241.363 181.899ZM258.822 199.415C265.377 181.366 258.495 172.289 243.577 172.289C229.1 172.289 217.306 181.899 213.726 195.241C209.961 209.291 216.595 218.627 231.968 218.627C238.751 218.627 247.057 216.316 253.05 211.518L247.826 204.668C244.602 207.253 238.858 208.758 234.787 208.758C227.015 208.758 223.271 204.836 224.004 199.415H258.822Z" fill="white"/>
<path d="M296.681 204.748C293.251 207.416 289.457 208.397 285.934 208.397C279.058 208.397 274.468 203.949 276.703 195.579C278.752 187.938 285.614 182.601 293.023 182.601C296.105 182.601 299.051 183.757 301.051 186.068L309.941 178.868C306.325 174.148 301.92 172.369 295.592 172.369C282.66 172.369 269.841 180.024 265.678 195.579C261.5 211.149 270.212 218.804 283.144 218.804C289.742 218.804 295.692 216.843 302.183 211.863L296.681 204.748Z" fill="white"/>
<path d="M355.608 194.445C359.302 180.661 352.961 172.922 342.47 172.922C336.861 172.922 331.744 175.142 326.057 179.499L326.939 173.545H317.075L305.296 217.481H316.235L322.249 195.061C324.028 188.394 330.149 182.797 336.932 182.797C343.986 182.797 346.327 187.861 344.541 194.536L338.391 217.481H349.43L355.608 194.445Z" fill="white"/>
<path d="M358.885 217.476H369.931L381.732 173.45H370.692L358.885 217.476Z" fill="white"/>
<path d="M385.993 161.249C388.256 152.802 375.231 152.802 372.975 161.249C370.705 169.702 383.73 169.702 385.993 161.249Z" fill="white"/>
<path d="M403.975 208.834C396.651 208.834 392.11 203.861 394.345 195.499C396.594 187.136 403.782 182.247 411.106 182.247C428.465 182.247 421.334 208.834 403.975 208.834ZM426.978 173.625L424.999 179.67C423.633 175.313 418.672 172.554 412.708 172.554C399.704 172.463 387.37 180.377 383.32 195.499C379.192 210.893 386.807 218.899 400.039 218.808C405.035 218.717 412.665 216.223 416.579 211.061L415.405 217.47H425.804L437.561 173.625H426.978Z" fill="white"/>
<path d="M128.653 236.573H126.952V253.501H128.653V236.573Z" fill="white"/>
<path d="M129.21 231.152C129.21 229.38 126.47 229.38 126.47 231.152C126.47 232.924 129.21 232.924 129.21 231.152Z" fill="white"/>
<path d="M160.572 253.511V243.411C160.572 239.216 157.589 236.309 153.39 236.309C150.757 236.309 148.081 237.71 147.048 240.476C146.038 237.472 143.298 236.309 140.7 236.309C138.479 236.309 136.301 237.234 135.12 239.447L135.084 236.652H133.49V253.511H135.191V243.509C135.191 240.266 137.404 237.906 140.664 237.906C143.924 237.906 146.18 240.266 146.18 243.509V253.511H147.881V243.509C147.881 240.266 150.13 237.885 153.39 237.885C156.65 237.885 158.87 240.168 158.87 243.411V253.511H160.572Z" fill="white"/>
<path d="M173.168 252.129C169.282 252.129 166.165 249.3 166.165 245.069C166.165 240.839 169.282 238.038 173.168 238.038C182.699 238.038 182.699 252.129 173.168 252.129ZM181.873 253.495V236.637H180.165V240.321C178.749 237.694 175.944 236.441 173.168 236.441C168.378 236.441 164.464 239.915 164.464 245.069C164.464 250.224 168.378 253.761 173.168 253.761C175.944 253.761 178.507 252.543 180.165 249.909V253.495H181.873Z" fill="white"/>
<path d="M187.397 244.566C187.397 240.161 190.236 238.011 193.745 238.011C197.283 238.011 200.158 240.301 200.158 244.566C200.158 248.04 197.283 251.052 193.745 251.052C189.824 251.052 187.397 248.04 187.397 244.566ZM193.745 262.846C190.308 262.846 187.325 261.215 187.325 257.769H185.632C185.632 262.034 189.197 264.492 193.745 264.492C198.279 264.492 201.888 262.3 201.888 257.769C201.888 254.869 200.222 252.789 197.204 251.724C200.051 250.464 201.816 247.501 201.816 244.566C201.816 241.835 200.913 240.126 199.703 238.83L201.368 236.918L200.265 235.965L198.592 237.878C197.283 236.953 195.475 236.344 193.745 236.344C189.304 236.344 185.696 239.306 185.696 244.566C185.696 249.07 188.777 252.719 193.745 252.719C196.934 252.719 200.222 254.148 200.222 257.769C200.222 261.348 197.176 262.846 193.745 262.846Z" fill="white"/>
<path d="M206.072 244.375C206.449 240.249 209.495 237.889 213.04 237.889C217.168 237.889 219.936 240.214 219.972 244.375H206.072ZM213.04 236.362C208.221 236.362 204.335 240.011 204.335 245.068C204.335 250.412 208.221 253.725 213.04 253.725C215.773 253.725 218.755 252.632 220.42 250.482L219.21 249.529C217.922 251.203 215.289 252.093 213.04 252.093C209.495 252.093 206.413 249.803 206.072 245.845H221.495C222.157 239.262 217.851 236.362 213.04 236.362Z" fill="white"/>
<path d="M241.432 253.495V243.767C241.432 239.095 238.272 236.336 233.696 236.336C231.304 236.371 228.913 237.316 227.596 239.642V236.637H225.931V253.495H227.632V244.11C227.632 240.629 230.087 238.003 233.625 237.968C237.34 237.933 239.731 239.978 239.731 243.802V253.495H241.432Z" fill="white"/>
<path d="M264.162 238.018C268.049 238.018 271.166 240.336 271.166 245.085C271.166 249.827 268.049 252.208 264.162 252.208C260.241 252.208 257.223 249.245 257.223 245.12C257.223 240.988 260.177 238.018 264.162 238.018ZM257.095 249.616C258.547 252.418 261.251 253.819 264.162 253.819C268.988 253.819 272.867 250.744 272.867 245.085C272.867 239.657 269.187 236.582 264.547 236.414C261.216 236.414 258.476 238.088 257.13 240.644V236.652H255.458V260.536H257.095V249.616Z" fill="white"/>
<path d="M278.666 239.648L278.595 236.637H277.001V253.502H278.702V243.669C278.702 240.601 281.164 238.073 284.346 238.045C285.349 238.045 286.36 238.283 287.264 238.822L288.026 237.463C286.88 236.777 285.634 236.441 284.346 236.469C282.161 236.469 279.734 237.358 278.666 239.648Z" fill="white"/>
<path d="M298.513 237.898C302.399 237.898 305.552 240.734 305.552 245.105C305.552 249.468 302.399 252.094 298.513 252.094C294.627 252.094 291.474 249.468 291.474 245.105C291.474 240.734 294.627 237.898 298.513 237.898ZM298.513 253.733C303.339 253.733 307.218 250.456 307.218 245.105C307.218 239.747 303.339 236.336 298.513 236.336C293.695 236.336 289.809 239.747 289.809 245.105C289.809 250.456 293.695 253.733 298.513 253.733Z" fill="white"/>
<path d="M317.984 231.04C319.024 231.04 319.678 231.348 320.618 231.888L321.451 230.662C320.483 229.954 319.33 229.506 318.056 229.506C314.276 229.506 312.917 231.923 312.917 235.27V236.769H309.422V238.24H312.917V253.495H314.582V238.24H320.234V236.769H314.582V235.27C314.582 232.336 315.835 231.04 317.984 231.04Z" fill="white"/>
<path d="M324.985 244.375C325.362 240.249 328.408 237.889 331.953 237.889C336.081 237.889 338.849 240.214 338.885 244.375H324.985ZM331.953 236.362C327.134 236.362 323.248 240.011 323.248 245.068C323.248 250.412 327.134 253.725 331.953 253.725C334.686 253.725 337.668 252.632 339.34 250.482L338.123 249.529C336.835 251.203 334.209 252.093 331.953 252.093C328.408 252.093 325.326 249.803 324.985 245.845H340.408C341.07 239.262 336.771 236.362 331.953 236.362Z" fill="white"/>
<path d="M351.356 252.182C349.065 252.182 346.495 251.327 345.079 249.317L343.826 250.403C345.321 252.651 348.303 253.786 351.321 253.786C354.339 253.786 358.253 252.798 358.36 249.079C358.531 245.157 354.339 244.645 351.285 244.134C349.136 243.756 346.161 243.308 346.082 241.059C346.011 238.902 348.581 237.915 351.25 237.957C353.157 237.957 354.858 238.23 356.588 239.729L357.634 238.636C355.933 237.067 353.748 236.388 351.25 236.388C347.783 236.353 344.417 237.782 344.453 241.094C344.488 244.463 347.783 245.087 351.114 245.633C353.919 246.074 356.766 246.55 356.694 248.974C356.588 251.642 353.435 252.182 351.356 252.182Z" fill="white"/>
<path d="M363.847 236.573H362.154V253.501H363.847V236.573Z" fill="white"/>
<path d="M364.411 231.152C364.411 229.38 361.671 229.38 361.671 231.152C361.671 232.924 364.411 232.924 364.411 231.152Z" fill="white"/>
<path d="M377.021 237.898C380.907 237.898 384.06 240.734 384.06 245.105C384.06 249.468 380.907 252.094 377.021 252.094C373.142 252.094 369.989 249.468 369.989 245.105C369.989 240.734 373.142 237.898 377.021 237.898ZM368.316 245.105C368.316 250.456 372.202 253.733 377.021 253.733C381.846 253.733 385.732 250.456 385.732 245.105C385.732 239.747 381.846 236.336 377.021 236.336C372.202 236.336 368.316 239.747 368.316 245.105Z" fill="white"/>
<path d="M405.146 253.495V243.767C405.146 239.095 401.993 236.336 397.417 236.336C395.018 236.371 392.634 237.316 391.317 239.642V236.637H389.644V253.495H391.353V244.11C391.353 240.629 393.808 238.003 397.345 237.968C401.061 237.933 403.452 239.978 403.452 243.802V253.495H405.146Z" fill="white"/>
<path d="M417.373 252.129C413.494 252.129 410.377 249.3 410.377 245.069C410.377 240.839 413.494 238.038 417.373 238.038C426.91 238.038 426.91 252.129 417.373 252.129ZM426.078 253.495V236.637H424.377V240.321C422.953 237.694 420.149 236.441 417.373 236.441C412.59 236.441 408.668 239.915 408.668 245.069C408.668 250.224 412.59 253.761 417.373 253.761C420.149 253.761 422.711 252.543 424.377 249.909V253.495H426.078Z" fill="white"/>
<path d="M430.661 229.612H432.355V253.502H430.661V229.612Z" fill="white"/>
</svg>
