<svg width="419" height="202" viewBox="0 0 419 202" fill="none" xmlns="http://www.w3.org/2000/svg">
<path fill-rule="evenodd" clip-rule="evenodd" d="M242.228 54.0381L195.865 76.4429L216.002 66.5998L174.812 110.935C174.759 110.939 174.625 110.896 174.419 110.824C174.654 110.911 174.812 110.959 174.874 110.959C175.143 110.963 288.927 71.5477 288.927 71.5477L242.228 54.0381Z" fill="#254D72"/>
<path fill-rule="evenodd" clip-rule="evenodd" d="M239.441 55.2814L216.006 66.606L177.803 107.777L239.441 55.2814Z" fill="#22324E"/>
<path fill-rule="evenodd" clip-rule="evenodd" d="M214.799 0C214.799 0 129.984 91.1535 129.994 91.2014C129.999 91.2302 132.966 92.4864 136.591 93.9871C147.566 98.5275 160.722 104.382 170.349 109.008C172.55 110.073 174.573 110.95 174.813 110.945L215.998 66.6055L215.974 66.6199L222.389 59.7877C228.651 53.1137 232.851 48.6453 258.08 21.7767C264.878 14.5466 261.033 18.3534 261.321 18.0802L261.776 17.5863L238.302 8.78836L214.799 0Z" fill="#0081BA"/>
<path d="M138.05 186.57L145.055 195.186V186.57H145.846V196.984H145.535L138.511 188.387V196.984H137.71V186.57H138.05Z" fill="white"/>
<path d="M154.463 193.326C154.463 191.423 153.106 190.186 151.442 190.186C149.774 190.186 148.422 191.423 148.422 193.326C148.422 195.23 149.774 196.376 151.442 196.376C153.106 196.376 154.463 195.23 154.463 193.326ZM147.708 193.326C147.708 190.991 149.371 189.505 151.442 189.505C153.509 189.505 155.177 190.991 155.177 193.326C155.177 195.661 153.509 197.09 151.442 197.09C149.371 197.09 147.708 195.661 147.708 193.326Z" fill="white"/>
<path d="M167.722 196.986V192.585C167.722 191.175 166.773 190.173 165.373 190.173C163.973 190.173 163.009 191.218 163.009 192.628V196.986H162.275V192.628C162.275 191.218 161.312 190.187 159.912 190.187C158.512 190.187 157.557 191.218 157.557 192.628V196.986H156.833V189.636H157.514L157.533 190.859C158.032 189.89 158.972 189.492 159.926 189.492C161.038 189.492 162.218 189.996 162.649 191.3C163.095 190.096 164.241 189.492 165.373 189.492C167.171 189.492 168.451 190.758 168.451 192.585V196.986H167.722Z" fill="white"/>
<path d="M171.226 193.297C171.226 195.128 172.501 196.394 174.232 196.394C175.886 196.394 177.233 195.349 177.233 193.311C177.233 191.244 175.886 190.218 174.232 190.218C172.53 190.218 171.226 191.465 171.226 193.297ZM171.211 186.57V191.244C171.806 190.055 172.995 189.518 174.26 189.518C176.317 189.518 177.948 190.89 177.948 193.311C177.948 195.751 176.322 197.103 174.27 197.103C173.023 197.103 171.815 196.48 171.211 195.368V196.988H170.497V186.57H171.211Z" fill="white"/>
<path d="M180.411 189.629L180.44 190.938C180.905 189.941 181.945 189.557 182.885 189.557C183.431 189.543 183.968 189.691 184.458 189.989L184.131 190.583C183.743 190.344 183.312 190.238 182.885 190.238C181.514 190.257 180.459 191.355 180.459 192.698V196.979H179.725V189.629H180.411Z" fill="white"/>
<path d="M191.842 193.013C191.827 191.201 190.638 190.189 188.864 190.189C187.349 190.189 186.04 191.215 185.877 193.013H191.842ZM185.134 193.31C185.134 191.11 186.798 189.518 188.864 189.518C190.936 189.518 192.782 190.784 192.499 193.655H185.877C186.026 195.382 187.349 196.374 188.864 196.374C189.833 196.374 190.964 195.99 191.516 195.262L192.038 195.679C191.324 196.614 190.044 197.088 188.864 197.088C186.798 197.088 185.134 195.645 185.134 193.31Z" fill="white"/>
<path d="M199.402 190.976C198.659 190.319 197.926 190.199 197.111 190.199C195.965 190.184 194.867 190.616 194.895 191.556C194.924 192.539 196.204 192.73 197.125 192.893C198.434 193.119 200.232 193.339 200.16 195.051C200.117 196.671 198.434 197.103 197.139 197.103C195.845 197.103 194.565 196.614 193.927 195.631L194.464 195.156C195.073 196.034 196.176 196.408 197.154 196.408C198.045 196.408 199.402 196.168 199.446 195.008C199.474 193.948 198.256 193.742 197.048 193.55C195.619 193.311 194.21 193.042 194.195 191.57C194.181 190.127 195.619 189.504 197.111 189.518C198.185 189.518 199.119 189.815 199.848 190.501L199.402 190.976Z" fill="white"/>
<path d="M206.765 191.946C206.765 192.718 205.591 192.718 205.591 191.946C205.591 191.169 206.765 191.169 206.765 191.946Z" fill="white"/>
<path d="M213.548 186.57V196.226H219.412V196.984H212.743V186.57H213.548Z" fill="white"/>
<path d="M227.214 193.326C227.214 191.423 225.858 190.186 224.194 190.186C222.525 190.186 221.173 191.423 221.173 193.326C221.173 195.23 222.525 196.376 224.194 196.376C225.858 196.376 227.214 195.23 227.214 193.326ZM220.459 193.326C220.459 190.991 222.123 189.505 224.194 189.505C226.26 189.505 227.929 190.991 227.929 193.326C227.929 195.661 226.26 197.09 224.194 197.09C222.123 197.09 220.459 195.661 220.459 193.326Z" fill="white"/>
<path d="M229.984 193.088C229.984 194.608 231.024 195.921 232.707 195.921C234.222 195.921 235.459 194.608 235.459 193.088C235.459 191.227 234.222 190.23 232.707 190.23C231.201 190.23 229.984 191.17 229.984 193.088ZM235.502 189.338L235.982 189.76L235.267 190.59C235.785 191.156 236.173 191.899 236.173 193.088C236.173 194.368 235.416 195.667 234.193 196.214C235.488 196.679 236.202 197.58 236.202 198.846C236.202 200.831 234.658 201.775 232.707 201.775C230.756 201.775 229.226 200.706 229.226 198.846H229.955C229.955 200.347 231.235 201.061 232.707 201.061C234.179 201.061 235.488 200.409 235.488 198.846C235.488 197.269 234.078 196.65 232.707 196.65C230.578 196.65 229.255 195.053 229.255 193.088C229.255 190.801 230.799 189.501 232.707 189.501C233.45 189.501 234.222 189.775 234.788 190.173L235.502 189.338Z" fill="white"/>
<path d="M244.082 193.326C244.082 191.423 242.725 190.186 241.062 190.186C239.393 190.186 238.041 191.423 238.041 193.326C238.041 195.23 239.393 196.376 241.062 196.376C242.725 196.376 244.082 195.23 244.082 193.326ZM237.327 193.326C237.327 190.991 238.99 189.505 241.062 189.505C243.128 189.505 244.797 190.991 244.797 193.326C244.797 195.661 243.128 197.09 241.062 197.09C238.99 197.09 237.327 195.661 237.327 193.326Z" fill="white"/>
<path d="M247.987 187.416V189.631H250.485V190.24H247.987V194.718C247.987 195.715 248.193 196.415 249.343 196.415C249.698 196.415 250.101 196.3 250.47 196.118L250.724 196.712C250.264 196.938 249.799 197.086 249.343 197.086C247.78 197.086 247.272 196.166 247.272 194.718V190.24H245.709V189.631H247.272V187.488L247.987 187.416Z" fill="white"/>
<path d="M252.17 196.986H252.899V189.607H252.17V196.986ZM253.139 187.238C253.139 188.01 251.964 188.01 251.964 187.238C251.964 186.467 253.139 186.467 253.139 187.238Z" fill="white"/>
<path d="M261.704 193.314C261.704 191.242 260.362 190.231 258.698 190.231C256.987 190.231 255.721 191.525 255.721 193.328C255.721 195.126 257.015 196.42 258.698 196.42C260.362 196.42 261.704 195.38 261.704 193.314ZM254.963 200.055V189.636H255.678V191.377C256.258 190.264 257.433 189.531 258.861 189.531C260.856 189.607 262.433 190.945 262.433 193.314C262.433 195.783 260.765 197.12 258.698 197.12C257.447 197.12 256.287 196.511 255.663 195.294V200.055H254.963Z" fill="white"/>
<path d="M270.614 193.326C270.614 191.423 269.262 190.186 267.594 190.186C265.925 190.186 264.573 191.423 264.573 193.326C264.573 195.23 265.925 196.376 267.594 196.376C269.262 196.376 270.614 195.23 270.614 193.326ZM263.859 193.326C263.859 190.991 265.527 189.505 267.594 189.505C269.665 189.505 271.328 190.991 271.328 193.326C271.328 195.661 269.665 197.09 267.594 197.09C265.527 197.09 263.859 195.661 263.859 193.326Z" fill="white"/>
<path d="M278.05 190.976C277.307 190.319 276.578 190.199 275.758 190.199C274.612 190.184 273.514 190.616 273.543 191.556C273.572 192.539 274.852 192.73 275.772 192.893C277.081 193.119 278.884 193.339 278.807 195.051C278.764 196.671 277.081 197.103 275.787 197.103C274.492 197.103 273.217 196.614 272.574 195.631L273.111 195.156C273.72 196.034 274.823 196.408 275.806 196.408C276.698 196.408 278.05 196.168 278.093 195.008C278.127 193.948 276.904 193.742 275.7 193.55C274.272 193.311 272.857 193.042 272.843 191.57C272.829 190.127 274.272 189.504 275.758 189.518C276.832 189.518 277.767 189.815 278.496 190.501L278.05 190.976Z" fill="white"/>
<path d="M285.418 191.946C285.418 192.718 284.238 192.718 284.238 191.946C284.238 191.169 285.418 191.169 285.418 191.946Z" fill="white"/>
<path d="M292.207 186.57H291.416V196.984H292.207V186.57Z" fill="white"/>
<path d="M305.232 196.986V192.585C305.232 191.175 304.277 190.173 302.882 190.173C301.482 190.173 300.514 191.218 300.514 192.628V196.986H299.785V192.628C299.785 191.218 298.821 190.187 297.421 190.187C296.021 190.187 295.067 191.218 295.067 192.628V196.986H294.338V189.636H295.024L295.043 190.859C295.542 189.89 296.482 189.492 297.436 189.492C298.548 189.492 299.728 189.996 300.159 191.3C300.605 190.096 301.751 189.492 302.882 189.492C304.68 189.492 305.96 190.758 305.96 192.585V196.986H305.232Z" fill="white"/>
<path d="M314.615 193.314C314.615 191.242 313.277 190.231 311.608 190.231C309.897 190.231 308.631 191.525 308.631 193.328C308.631 195.126 309.925 196.42 311.608 196.42C313.277 196.42 314.615 195.38 314.615 193.314ZM307.873 200.055V189.636H308.588V191.377C309.168 190.264 310.343 189.531 311.771 189.531C313.766 189.607 315.343 190.945 315.343 193.314C315.343 195.783 313.68 197.12 311.608 197.12C310.362 197.12 309.202 196.511 308.573 195.294V200.055H307.873Z" fill="white"/>
<path d="M317.788 189.629L317.816 190.938C318.282 189.941 319.322 189.557 320.257 189.557C320.808 189.543 321.345 189.691 321.834 189.989L321.508 190.583C321.12 190.344 320.688 190.238 320.257 190.238C318.886 190.257 317.831 191.355 317.831 192.698V196.979H317.102V189.629H317.788Z" fill="white"/>
<path d="M329.219 193.013C329.204 191.201 328.015 190.189 326.241 190.189C324.726 190.189 323.417 191.215 323.249 193.013H329.219ZM322.511 193.31C322.511 191.11 324.175 189.518 326.241 189.518C328.312 189.518 330.153 190.784 329.875 193.655H323.249C323.403 195.382 324.726 196.374 326.241 196.374C327.21 196.374 328.341 195.99 328.892 195.262L329.415 195.679C328.701 196.614 327.421 197.088 326.241 197.088C324.175 197.088 322.511 195.645 322.511 193.31Z" fill="white"/>
<path d="M336.805 190.976C336.062 190.319 335.333 190.199 334.513 190.199C333.372 190.184 332.269 190.616 332.298 191.556C332.327 192.539 333.607 192.73 334.527 192.893C335.841 193.119 337.639 193.339 337.567 195.051C337.519 196.671 335.841 197.103 334.542 197.103C333.252 197.103 331.972 196.614 331.329 195.631L331.866 195.156C332.475 196.034 333.578 196.408 334.561 196.408C335.453 196.408 336.805 196.168 336.853 195.008C336.881 193.948 335.659 193.742 334.455 193.55C333.027 193.311 331.612 193.042 331.603 191.57C331.583 190.127 333.027 189.504 334.513 189.518C335.587 189.518 336.522 189.815 337.251 190.501L336.805 190.976Z" fill="white"/>
<path d="M345.596 193.326C345.596 191.423 344.244 190.186 342.575 190.186C340.907 190.186 339.555 191.423 339.555 193.326C339.555 195.23 340.907 196.376 342.575 196.376C344.244 196.376 345.596 195.23 345.596 193.326ZM338.84 193.326C338.84 190.991 340.504 189.505 342.575 189.505C344.642 189.505 346.31 190.991 346.31 193.326C346.31 195.661 344.642 197.09 342.575 197.09C340.504 197.09 338.84 195.661 338.84 193.326Z" fill="white"/>
<path d="M353.006 190.976C352.263 190.319 351.529 190.199 350.709 190.199C349.563 190.184 348.47 190.616 348.499 191.556C348.528 192.539 349.808 192.73 350.728 192.893C352.037 193.119 353.84 193.339 353.759 195.051C353.72 196.671 352.037 197.103 350.738 197.103C349.448 197.103 348.168 196.614 347.531 195.631L348.068 195.156C348.676 196.034 349.779 196.408 350.757 196.408C351.649 196.408 353.006 196.168 353.044 195.008C353.073 193.948 351.855 193.742 350.652 193.55C349.223 193.311 347.813 193.042 347.794 191.57C347.785 190.127 349.223 189.504 350.709 189.518C351.788 189.518 352.723 189.815 353.447 190.501L353.006 190.976Z" fill="white"/>
<path d="M360.369 191.946C360.369 192.718 359.194 192.718 359.194 191.946C359.194 191.169 360.369 191.169 360.369 191.946Z" fill="white"/>
<path d="M367.147 187.313V192.654H370.911C374.377 192.654 374.377 187.313 370.911 187.313H367.147ZM367.147 193.383V196.984H366.346V186.57H370.911C375.437 186.57 375.437 193.383 370.911 193.383H367.147Z" fill="white"/>
<path d="M375.945 193.307C375.945 195.148 377.283 196.385 378.946 196.385C383.041 196.385 383.041 190.239 378.946 190.239C377.283 190.239 375.945 191.461 375.945 193.307ZM382.686 189.63V196.98H381.957V195.417C381.243 196.563 380.14 197.1 378.946 197.1C376.894 197.1 375.216 195.551 375.216 193.307C375.216 191.059 376.894 189.543 378.946 189.543C380.14 189.543 381.344 190.095 381.957 191.236V189.63H382.686Z" fill="white"/>
<path d="M385.048 193.088C385.048 194.608 386.089 195.921 387.772 195.921C389.291 195.921 390.524 194.608 390.524 193.088C390.524 191.227 389.291 190.23 387.772 190.23C386.266 190.23 385.048 191.17 385.048 193.088ZM390.567 189.338L391.046 189.76L390.332 190.59C390.85 191.156 391.238 191.899 391.238 193.088C391.238 194.368 390.48 195.667 389.258 196.214C390.552 196.679 391.267 197.58 391.267 198.846C391.267 200.831 389.723 201.775 387.772 201.775C385.82 201.775 384.291 200.706 384.291 198.846H385.02C385.02 200.347 386.3 201.061 387.772 201.061C389.244 201.061 390.552 200.409 390.552 198.846C390.552 197.269 389.143 196.65 387.772 196.65C385.648 196.65 384.32 195.053 384.32 193.088C384.32 190.801 385.868 189.501 387.772 189.501C388.515 189.501 389.291 189.775 389.852 190.173L390.567 189.338Z" fill="white"/>
<path d="M392.726 196.986H393.455V189.607H392.726V196.986ZM393.694 187.238C393.694 188.01 392.52 188.01 392.52 187.238C392.52 186.467 393.694 186.467 393.694 187.238Z" fill="white"/>
<path d="M396.259 189.634V190.943C396.825 189.932 397.851 189.519 398.877 189.505C400.842 189.505 402.194 190.708 402.194 192.746V196.984H401.466V192.76C401.466 191.092 400.44 190.2 398.848 190.219C397.333 190.234 396.273 191.375 396.273 192.895V196.984H395.544V189.634H396.259Z" fill="white"/>
<path d="M404.399 193.307C404.399 195.148 405.737 196.385 407.406 196.385C411.495 196.385 411.495 190.239 407.406 190.239C405.737 190.239 404.399 191.461 404.399 193.307ZM411.141 189.63V196.98H410.412V195.417C409.697 196.563 408.595 197.1 407.406 197.1C405.354 197.1 403.671 195.551 403.671 193.307C403.671 191.059 405.354 189.543 407.406 189.543C408.595 189.543 409.798 190.095 410.412 191.236V189.63H411.141Z" fill="white"/>
<path d="M418.169 190.976C417.426 190.319 416.698 190.199 415.878 190.199C414.737 190.184 413.634 190.616 413.663 191.556C413.691 192.539 414.972 192.73 415.892 192.893C417.206 193.119 419.004 193.339 418.932 195.051C418.884 196.671 417.206 197.103 415.906 197.103C414.617 197.103 413.337 196.614 412.694 195.631L413.231 195.156C413.84 196.034 414.943 196.408 415.926 196.408C416.817 196.408 418.169 196.168 418.217 195.008C418.246 193.948 417.024 193.742 415.82 193.55C414.391 193.311 412.977 193.042 412.963 191.57C412.948 190.127 414.391 189.504 415.878 189.518C416.952 189.518 417.887 189.815 418.615 190.501L418.169 190.976Z" fill="white"/>
<path d="M0 121.06H5.61438V171.57H27.1034V176.96H0V121.06Z" fill="white"/>
<path d="M54.5659 139.003C50.1693 139.003 46.3864 140.638 43.222 143.903C40.0528 147.173 38.4707 151.118 38.4707 155.74C38.4707 158.732 39.1946 161.527 40.6378 164.126C42.0809 166.729 44.0371 168.724 46.5015 170.119C48.9659 171.514 51.6508 172.21 54.5659 172.21C57.5337 172.21 60.2426 171.514 62.6878 170.119C65.1426 168.724 67.0796 166.729 68.5131 164.126C69.9467 161.527 70.6611 158.732 70.6611 155.74C70.6611 151.118 69.0789 147.173 65.9145 143.903C62.7501 140.638 58.9624 139.003 54.5659 139.003ZM54.5659 133.801C60.9234 133.801 66.2022 136.102 70.3974 140.7C74.1946 144.919 76.0885 149.91 76.0885 155.664C76.0885 161.422 74.0796 166.451 70.057 170.762C66.0392 175.072 60.8707 177.225 54.5659 177.225C48.2371 177.225 43.0638 175.072 39.0556 170.762C35.0473 166.451 33.0432 161.422 33.0432 155.664C33.0432 149.934 34.9419 144.962 38.7344 140.738C42.9344 136.112 48.2083 133.801 54.5659 133.801Z" fill="white"/>
<path d="M105.765 138.939C102.749 138.939 99.9542 139.668 97.3748 141.125C94.8001 142.583 92.7816 144.592 91.3097 147.157C89.8378 149.722 89.1042 152.498 89.1042 155.49C89.1042 160.035 90.6241 163.794 93.6638 166.757C96.7036 169.72 100.64 171.206 105.463 171.206C110.387 171.206 114.333 169.734 117.296 166.795C120.264 163.856 121.745 159.987 121.745 155.187C121.745 152.071 121.06 149.295 119.693 146.855C118.322 144.419 116.385 142.492 113.887 141.068C111.384 139.648 108.675 138.939 105.765 138.939ZM126.871 167.811C126.871 173.618 126.358 177.866 125.327 180.555C123.946 184.348 121.525 187.268 118.068 189.315C114.616 191.367 110.473 192.388 105.655 192.388C102.083 192.388 98.8899 191.885 96.0755 190.883C93.2611 189.876 90.9645 188.529 89.181 186.846C87.3926 185.163 85.7625 182.698 84.281 179.462H90.0488C91.631 182.2 93.6591 184.223 96.133 185.527C98.607 186.836 101.695 187.488 105.386 187.488C109.006 187.488 112.065 186.807 114.563 185.455C117.066 184.094 118.845 182.401 119.899 180.364C120.954 178.331 121.482 175.022 121.482 170.448V168.339C119.497 170.88 117.052 172.827 114.151 174.183C111.25 175.54 108.186 176.216 104.974 176.216C101.177 176.216 97.6049 175.277 94.2488 173.392C90.8926 171.503 88.3036 168.962 86.4864 165.759C84.6597 162.557 83.7488 159.042 83.7488 155.221C83.7488 151.405 84.6981 147.842 86.5967 144.534C88.4953 141.235 91.1275 138.618 94.4933 136.695C97.8638 134.772 101.393 133.813 105.084 133.813C108.201 133.813 111.03 134.288 113.566 135.247C115.704 136.024 118.226 137.52 121.146 139.73C123.606 141.768 125.543 145.646 126.947 151.381C126.899 152.133 126.871 157.613 126.871 167.811Z" fill="white"/>
<path d="M157.695 139.003C153.298 139.003 149.515 140.638 146.351 143.903C143.182 147.173 141.599 151.118 141.599 155.74C141.599 158.732 142.319 161.527 143.766 164.126C145.21 166.729 147.166 168.724 149.63 170.119C152.09 171.514 154.779 172.21 157.695 172.21C160.662 172.21 163.366 171.514 165.816 170.119C168.271 168.724 170.208 166.729 171.642 164.126C173.075 161.527 173.79 158.732 173.79 155.74C173.79 151.118 172.208 147.173 169.043 143.903C165.874 140.638 162.091 139.003 157.695 139.003ZM157.695 133.801C164.052 133.801 169.331 136.102 173.526 140.7C177.319 144.919 179.217 149.91 179.217 155.664C179.217 161.422 177.208 166.451 173.186 170.762C169.168 175.072 163.999 177.225 157.695 177.225C151.361 177.225 146.192 175.072 142.184 170.762C138.176 166.451 136.172 161.422 136.172 155.664C136.172 149.934 138.071 144.962 141.863 140.738C146.063 136.112 151.337 133.801 157.695 133.801Z" fill="white"/>
<path d="M205.581 175.762C202.815 176.817 200.35 177.306 198.193 177.229C194.122 177.004 190.905 174.894 188.541 170.901C187.108 168.388 186.417 165.622 186.47 162.606V119.676H191.821V139.65H201.659V144.209H191.859V161.7C191.71 166.025 193.168 169.357 196.232 171.692C198.744 172.871 201.304 172.761 203.922 171.351C204.598 173.236 205.154 174.707 205.581 175.762Z" fill="white"/>
<path d="M248.839 151.368C248.134 148.529 247.104 146.262 245.747 144.564C244.39 142.867 242.592 141.496 240.353 140.455C238.119 139.41 235.769 138.888 233.31 138.888C229.263 138.888 225.782 140.197 222.867 142.81C220.758 144.718 219.161 147.571 218.077 151.368H248.839ZM248.839 162.486L253.284 164.86C251.85 167.751 250.167 170.076 248.235 171.836C246.298 173.595 244.126 174.933 241.714 175.849C239.303 176.764 236.575 177.225 233.535 177.225C226.799 177.225 221.534 175.019 217.742 170.608C213.945 166.197 212.051 161.221 212.051 155.664C212.051 150.409 213.657 145.739 216.874 141.645C220.945 136.414 226.41 133.801 233.271 133.801C240.281 133.801 245.9 136.476 250.119 141.831C253.111 145.6 254.617 150.299 254.641 155.927H217.517C217.612 160.755 219.147 164.706 222.11 167.779C225.077 170.862 228.736 172.401 233.08 172.401C235.194 172.401 237.241 172.032 239.226 171.289C241.211 170.546 242.899 169.573 244.294 168.364C245.689 167.161 247.204 165.2 248.839 162.486Z" fill="white"/>
<path d="M304.67 143.452L300.451 146.089C296.807 141.218 291.83 138.777 285.52 138.777C280.472 138.777 276.281 140.398 272.949 143.644C269.622 146.88 267.958 150.831 267.958 155.477C267.958 158.492 268.72 161.34 270.255 164.016C271.789 166.691 273.889 168.758 276.55 170.215C279.211 171.673 282.203 172.401 285.52 172.401C291.629 172.401 296.605 169.99 300.451 165.166L304.67 167.918C302.685 170.881 300.029 173.173 296.696 174.794C293.369 176.414 289.567 177.225 285.295 177.225C278.789 177.225 273.381 175.153 269.07 171.006C264.76 166.859 262.603 161.825 262.603 155.894C262.603 151.871 263.614 148.146 265.637 144.718C267.661 141.285 270.422 138.61 273.932 136.687C277.437 134.764 281.378 133.801 285.746 133.801C288.464 133.801 291.092 134.218 293.647 135.047C296.193 135.877 298.36 136.965 300.149 138.308C301.932 139.655 303.438 141.366 304.67 143.452Z" fill="white"/>
<path d="M314.821 161.518L314.744 157.112C314.668 154.949 314.759 153.113 315.013 151.608C315.559 146.856 316.768 143.375 318.628 141.165C320.435 139.233 322.286 137.737 324.17 136.677C327.287 135.349 330.84 134.721 334.838 134.793C337.95 134.793 340.836 135.579 343.488 137.147C346.139 138.72 348.028 140.834 349.16 143.486C350.291 146.137 350.857 150.289 350.857 155.942V177.201H345.578V157.486C345.578 152.715 345.377 149.522 344.979 147.911C344.351 145.173 343.104 143.232 341.244 142.086C339.383 140.945 336.631 140.374 332.992 140.374C329.775 140.374 326.908 141.304 324.396 143.16C321.883 145.025 320.714 147.561 320.891 150.778C320.416 152.835 320.172 156.594 320.172 162.045V177.201H314.821V161.518Z" fill="white"/>
<path d="M361.412 135.839H366.725V177.192H361.412V135.839ZM364.054 118.843C365.257 118.843 366.298 119.269 367.161 120.123C368.029 120.976 368.465 122.007 368.465 123.211C368.465 124.419 368.029 125.454 367.161 126.322C366.298 127.19 365.257 127.622 364.054 127.622C362.846 127.622 361.815 127.19 360.962 126.322C360.108 125.454 359.681 124.419 359.681 123.211C359.681 122.007 360.108 120.976 360.962 120.123C361.815 119.269 362.846 118.843 364.054 118.843Z" fill="white"/>
<path d="M397.256 139.003C392.855 139.003 389.077 140.638 385.912 143.903C382.743 147.173 381.161 151.118 381.161 155.74C381.161 158.732 381.971 161.609 383.592 164.375C385.217 167.137 387.96 169.472 391.824 171.38C401.523 173.542 408.427 169.131 412.527 158.152C412.742 154.633 412.369 151.267 411.39 148.05C410.686 146.592 409.717 145.212 408.485 143.903C405.397 140.638 401.653 139.003 397.256 139.003ZM397.256 133.801C403.609 133.801 408.888 136.102 413.083 140.7C416.957 144.895 418.894 149.886 418.894 155.664C418.937 169.937 418.937 177.186 418.894 177.412H413.275V168.029C410.336 173.504 404.999 176.573 397.256 177.225C390.927 177.225 385.754 175.072 381.741 170.762C377.738 166.451 375.729 161.422 375.729 155.664C375.729 149.934 377.632 144.962 381.425 140.738C385.625 136.112 390.899 133.801 397.256 133.801Z" fill="white"/>
</svg>
