<svg width="190" height="146" viewBox="0 0 190 146" fill="none" xmlns="http://www.w3.org/2000/svg">
<path d="M176.043 -6.22578e-05H45.3247C36.6228 -6.22578e-05 28.1101 6.32934 26.4075 13.8095L0.301723 131.958C-1.40083 139.438 4.27434 145.768 12.9763 145.768H143.694C152.396 145.768 160.909 139.438 162.612 131.958L188.717 13.8095C190.42 6.32934 184.745 -6.22578e-05 176.043 -6.22578e-05ZM96.2121 23.9749H160.342L144.262 96.6671L105.671 121.793L121.372 50.6351H90.3478L96.2121 23.9749ZM50.2432 23.9749H83.3484L67.6471 95.1327H98.6714L92.807 121.793H28.6776L50.2432 23.9749Z" fill="url(#paint0_linear)"/>
<defs>
<linearGradient id="paint0_linear" x1="-0.0766222" y1="72.8909" x2="189.096" y2="72.8909" gradientUnits="userSpaceOnUse">
<stop stop-color="#1A4AA0"/>
<stop offset="1" stop-color="#00B8DF"/>
</linearGradient>
</defs>
</svg>
